<svg width="384.862548828125px" height="111.20498046875px" xmlns="http://www.w3.org/2000/svg" viewBox="57.5687255859375 19.397509765625003 384.862548828125 111.20498046875" style="background: rgba(0, 0, 0, 0);" preserveAspectRatio="xMidYMid"><defs><linearGradient id="editing-shiny-gradient" x1="0.04322727117869957" x2="0.9567727288213004" y1="0.2966316784620999" y2="0.7033683215379001" gradientUnits="objectBoundingBox"><stop offset="0.0" stop-color="#ffb200"></stop><stop offset="0.5" stop-color="#e10057"></stop><stop offset="1.0" stop-color="#5A1A80"></stop></linearGradient><linearGradient id="editing-shiny-gradient2" x1="0" x2="0" y1="0" y2="1"><stop offset="0.2" stop-color="#fff" stop-opacity="0.8"></stop><stop offset="0.8" stop-color="#fff" stop-opacity="0"></stop></linearGradient><filter id="editing-shiny2" x="-100%" y="-100%" width="300%" height="300%"><feMorphology operator="erode" radius="2"></feMorphology></filter><filter id="editing-shiny" x="-100%" y="-100%" width="300%" height="300%"><feFlood flood-color="#fff" result="flood"></feFlood><feConvolveMatrix in="SourceGraphic" result="conv" order="8,8" divisor="1" kernelMatrix="0 0 0 0 0 0 0 0 0 0 0 1 1 0 0 0 0 0 0 1 1 0 0 0 0 0 1 0 0 1 0 0 0 0 1 0 0 1 0 0 0 1 0 0 0 0 1 0 0 1 1 0 0 1 1 0 0 0 0 1 1 0 0 0 "></feConvolveMatrix><feOffset dx="0" dy="4" in="conv" result="offset"></feOffset><feComposite operator="in" in="flood" in2="offset" result="comp"></feComposite><feGaussianBlur in="offset" stdDeviation="3" result="shadow"></feGaussianBlur><feColorMatrix in="shadow" type="matrix" values="0.7 0 0 0 0  0 0.7 0 0 0  0 0 0.7 0 0  0 0 0 0.3 0" result="dark-shadow"></feColorMatrix><feOffset dx="0" dy="4" in="dark-shadow" result="offset-shadow"></feOffset><feOffset dx="0" dy="2" in="conv" result="offset-2"></feOffset><feComposite operator="out" in="offset" in2="offset-2" result="edge-diff"></feComposite><feGaussianBlur in="edge-diff" stdDeviation="1" result="edge-blur"></feGaussianBlur><feColorMatrix in="edge-blur" result="edge-shadow" type="matrix" values="0 0 0 0 0  0 0 0 0 0  0 0 0 0 0  0 0 0 0.5 0"></feColorMatrix><feComposite operator="in" in="edge-shadow" in2="offset" result="edge-shadow-in"></feComposite><feOffset dx="0" dy="1" in="edge-shadow-in" result="edge-shadow-final"></feOffset><feMerge result="out"><feMergeNode in="offset-shadow"></feMergeNode><feMergeNode in="comp"></feMergeNode><feMergeNode in="edge-shadow-final"></feMergeNode><feMergeNode in="SourceGraphic"></feMergeNode></feMerge></filter></defs><g filter="url(#editing-shiny)"><g transform="translate(112.1199951171875, 98.57999992370605)"><path d="M6-44.52L6-44.52Q6-45.54 6.69-46.20L6.69-46.20L6.69-46.20Q7.38-46.86 8.34-46.86L8.34-46.86L8.34-46.86Q9.36-46.86 10.02-46.20L10.02-46.20L10.02-46.20Q10.68-45.54 10.68-44.52L10.68-44.52L10.68-2.34L10.68-2.34Q10.68-1.38 10.02-0.69L10.02-0.69L10.02-0.69Q9.36 0 8.34 0L8.34 0L8.34 0Q7.38 0 6.69-0.69L6.69-0.69L6.69-0.69Q6-1.38 6-2.34L6-2.34L6-44.52ZM37.62-33.18L37.62-33.18Q41.88-33.18 45.27-31.38L45.27-31.38L45.27-31.38Q48.66-29.58 50.58-26.13L50.58-26.13L50.58-26.13Q52.50-22.68 52.50-17.88L52.50-17.88L52.50-2.28L52.50-2.28Q52.50-1.32 51.84-0.66L51.84-0.66L51.84-0.66Q51.18 0 50.22 0L50.22 0L50.22 0Q49.20 0 48.54-0.66L48.54-0.66L48.54-0.66Q47.88-1.32 47.88-2.28L47.88-2.28L47.88-17.88L47.88-17.88Q47.88-23.22 44.91-26.01L44.91-26.01L44.91-26.01Q41.94-28.80 37.14-28.80L37.14-28.80L37.14-28.80Q34.20-28.80 31.83-27.66L31.83-27.66L31.83-27.66Q29.46-26.52 28.08-24.51L28.08-24.51L28.08-24.51Q26.70-22.50 26.70-20.04L26.70-20.04L26.70-2.28L26.70-2.28Q26.70-1.26 26.07-0.63L26.07-0.63L26.07-0.63Q25.44 0 24.42 0L24.42 0L24.42 0Q23.40 0 22.74-0.63L22.74-0.63L22.74-0.63Q22.08-1.26 22.08-2.28L22.08-2.28L22.08-30.48L22.08-30.48Q22.08-31.50 22.74-32.16L22.74-32.16L22.74-32.16Q23.40-32.82 24.42-32.82L24.42-32.82L24.42-32.82Q25.44-32.82 26.07-32.16L26.07-32.16L26.07-32.16Q26.70-31.50 26.70-30.48L26.70-30.48L26.70-28.44L26.70-28.44Q28.68-30.66 31.50-31.92L31.50-31.92L31.50-31.92Q34.32-33.18 37.62-33.18L37.62-33.18ZM94.26-31.08L94.26-31.08Q94.32-30.90 94.32-30.54L94.32-30.54L94.32-16.44L94.32-16.44Q94.32-11.76 92.13-7.92L92.13-7.92L92.13-7.92Q89.94-4.08 86.13-1.89L86.13-1.89L86.13-1.89Q82.32 0.30 77.64 0.30L77.64 0.30L77.64 0.30Q72.96 0.30 69.15-1.89L69.15-1.89L69.15-1.89Q65.34-4.08 63.15-7.92L63.15-7.92L63.15-7.92Q60.96-11.76 60.96-16.44L60.96-16.44L60.96-16.44Q60.96-21.12 63.09-24.93L63.09-24.93L63.09-24.93Q65.22-28.74 68.91-30.93L68.91-30.93L68.91-30.93Q72.60-33.12 77.16-33.12L77.16-33.12L77.16-33.12Q81.06-33.12 84.30-31.47L84.30-31.47L84.30-31.47Q87.54-29.82 89.64-26.94L89.64-26.94L89.64-44.52L89.64-44.52Q89.64-45.54 90.30-46.20L90.30-46.20L90.30-46.20Q90.96-46.86 91.98-46.86L91.98-46.86L91.98-46.86Q93-46.86 93.63-46.20L93.63-46.20L93.63-46.20Q94.26-45.54 94.26-44.52L94.26-44.52L94.26-31.08ZM77.64-3.90L77.64-3.90Q81.06-3.90 83.82-5.55L83.82-5.55L83.82-5.55Q86.58-7.20 88.17-10.05L88.17-10.05L88.17-10.05Q89.76-12.90 89.76-16.44L89.76-16.44L89.76-16.44Q89.76-17.46 89.70-17.94L89.70-17.94L89.70-17.94Q89.64-18.06 89.64-18.24L89.64-18.24L89.64-18.24Q89.04-22.92 85.71-25.92L85.71-25.92L85.71-25.92Q82.38-28.92 77.64-28.92L77.64-28.92L77.64-28.92Q74.22-28.92 71.43-27.30L71.43-27.30L71.43-27.30Q68.64-25.68 67.05-22.83L67.05-22.83L67.05-22.83Q65.46-19.98 65.46-16.44L65.46-16.44L65.46-16.44Q65.46-12.90 67.05-10.05L67.05-10.05L67.05-10.05Q68.64-7.20 71.43-5.55L71.43-5.55L71.43-5.55Q74.22-3.90 77.64-3.90L77.64-3.90ZM120.06-33.12L120.06-33.12Q124.80-33.12 128.58-30.96L128.58-30.96L128.58-30.96Q132.36-28.80 134.55-24.96L134.55-24.96L134.55-24.96Q136.74-21.12 136.74-16.38L136.74-16.38L136.74-16.38Q136.74-11.64 134.58-7.83L134.58-7.83L134.58-7.83Q132.42-4.02 128.61-1.86L128.61-1.86L128.61-1.86Q124.80 0.30 120.06 0.30L120.06 0.30L120.06 0.30Q115.32 0.30 111.51-1.86L111.51-1.86L111.51-1.86Q107.70-4.02 105.54-7.83L105.54-7.83L105.54-7.83Q103.38-11.64 103.38-16.38L103.38-16.38L103.38-16.38Q103.38-21.12 105.54-24.96L105.54-24.96L105.54-24.96Q107.70-28.80 111.51-30.96L111.51-30.96L111.51-30.96Q115.32-33.12 120.06-33.12L120.06-33.12ZM120.06-28.92L120.06-28.92Q116.64-28.92 113.85-27.30L113.85-27.30L113.85-27.30Q111.06-25.68 109.47-22.83L109.47-22.83L109.47-22.83Q107.88-19.98 107.88-16.38L107.88-16.38L107.88-16.38Q107.88-12.84 109.47-9.99L109.47-9.99L109.47-9.99Q111.06-7.14 113.85-5.52L113.85-5.52L113.85-5.52Q116.64-3.90 120.06-3.90L120.06-3.90L120.06-3.90Q123.54-3.90 126.30-5.52L126.30-5.52L126.30-5.52Q129.06-7.14 130.62-9.99L130.62-9.99L130.62-9.99Q132.18-12.84 132.18-16.38L132.18-16.38L132.18-16.38Q132.18-19.98 130.62-22.83L130.62-22.83L130.62-22.83Q129.06-25.68 126.30-27.30L126.30-27.30L126.30-27.30Q123.54-28.92 120.06-28.92L120.06-28.92ZM151.02-2.34L151.02-2.34Q151.02-1.38 150.36-0.69L150.36-0.69L150.36-0.69Q149.70 0 148.68 0L148.68 0L148.68 0Q147.72 0 147.03-0.69L147.03-0.69L147.03-0.69Q146.34-1.38 146.34-2.34L146.34-2.34L146.34-44.52L146.34-44.52Q146.34-45.48 147.03-46.17L147.03-46.17L147.03-46.17Q147.72-46.86 148.68-46.86L148.68-46.86L148.68-46.86Q149.70-46.86 150.36-46.20L150.36-46.20L150.36-46.20Q151.02-45.54 151.02-44.52L151.02-44.52L151.02-24.12L172.92-46.02L172.92-46.02Q173.76-46.86 174.78-46.86L174.78-46.86L174.78-46.86Q175.80-46.86 176.37-46.26L176.37-46.26L176.37-46.26Q176.94-45.66 176.94-44.76L176.94-44.76L176.94-44.76Q176.94-43.68 176.16-42.84L176.16-42.84L159.72-26.40L176.34-3.72L176.34-3.72Q176.82-2.94 176.82-2.28L176.82-2.28L176.82-2.28Q176.82-1.38 176.19-0.69L176.19-0.69L176.19-0.69Q175.56 0 174.66 0L174.66 0L174.66 0Q173.34 0 172.68-1.02L172.68-1.02L156.36-23.10L151.02-17.70L151.02-2.34ZM199.98-33.12L199.98-33.12Q204.66-33.12 208.47-30.93L208.47-30.93L208.47-30.93Q212.28-28.74 214.47-24.90L214.47-24.90L214.47-24.90Q216.66-21.06 216.66-16.38L216.66-16.38L216.66-2.28L216.66-2.28Q216.66-1.32 216-0.66L216-0.66L216-0.66Q215.34 0 214.32 0L214.32 0L214.32 0Q213.30 0 212.64-0.63L212.64-0.63L212.64-0.63Q211.98-1.26 211.98-2.28L211.98-2.28L211.98-5.88L211.98-5.88Q209.88-3 206.64-1.35L206.64-1.35L206.64-1.35Q203.40 0.30 199.50 0.30L199.50 0.30L199.50 0.30Q194.94 0.30 191.25-1.89L191.25-1.89L191.25-1.89Q187.56-4.08 185.43-7.89L185.43-7.89L185.43-7.89Q183.30-11.70 183.30-16.38L183.30-16.38L183.30-16.38Q183.30-21.06 185.49-24.90L185.49-24.90L185.49-24.90Q187.68-28.74 191.49-30.93L191.49-30.93L191.49-30.93Q195.30-33.12 199.98-33.12L199.98-33.12ZM199.98-3.90L199.98-3.90Q203.40-3.90 206.16-5.52L206.16-5.52L206.16-5.52Q208.92-7.14 210.51-9.99L210.51-9.99L210.51-9.99Q212.10-12.84 212.10-16.38L212.10-16.38L212.10-16.38Q212.10-19.92 210.51-22.77L210.51-22.77L210.51-22.77Q208.92-25.62 206.16-27.27L206.16-27.27L206.16-27.27Q203.40-28.92 199.98-28.92L199.98-28.92L199.98-28.92Q196.56-28.92 193.77-27.27L193.77-27.27L193.77-27.27Q190.98-25.62 189.39-22.77L189.39-22.77L189.39-22.77Q187.80-19.92 187.80-16.38L187.80-16.38L187.80-16.38Q187.80-12.84 189.39-9.99L189.39-9.99L189.39-9.99Q190.98-7.14 193.77-5.52L193.77-5.52L193.77-5.52Q196.56-3.90 199.98-3.90L199.98-3.90ZM240.48-33.18L240.48-33.18Q243-33.18 244.47-32.52L244.47-32.52L244.47-32.52Q245.94-31.86 245.94-30.66L245.94-30.66L245.94-30.66Q245.94-30.30 245.88-30.12L245.88-30.12L245.88-30.12Q245.64-29.28 245.13-28.98L245.13-28.98L245.13-28.98Q244.62-28.68 243.72-28.68L243.72-28.68L243.72-28.68Q243.18-28.68 241.86-28.80L241.86-28.80L241.86-28.80Q241.38-28.86 240.42-28.86L240.42-28.86L240.42-28.86Q235.92-28.86 233.07-26.46L233.07-26.46L233.07-26.46Q230.22-24.06 230.22-20.22L230.22-20.22L230.22-2.28L230.22-2.28Q230.22-1.20 229.62-0.60L229.62-0.60L229.62-0.60Q229.02 0 227.94 0L227.94 0L227.94 0Q226.86 0 226.26-0.60L226.26-0.60L226.26-0.60Q225.66-1.20 225.66-2.28L225.66-2.28L225.66-30.54L225.66-30.54Q225.66-31.62 226.26-32.22L226.26-32.22L226.26-32.22Q226.86-32.82 227.94-32.82L227.94-32.82L227.94-32.82Q229.02-32.82 229.62-32.22L229.62-32.22L229.62-32.22Q230.22-31.62 230.22-30.54L230.22-30.54L230.22-27.90L230.22-27.90Q231.96-30.42 234.66-31.80L234.66-31.80L234.66-31.80Q237.36-33.18 240.48-33.18L240.48-33.18ZM267.60-4.62L267.60-4.62Q268.56-4.62 269.16-3.96L269.16-3.96L269.16-3.96Q269.76-3.30 269.76-2.28L269.76-2.28L269.76-2.28Q269.76-1.32 269.04-0.66L269.04-0.66L269.04-0.66Q268.32 0 267.24 0L267.24 0L265.98 0L265.98 0Q262.80 0 260.28-1.53L260.28-1.53L260.28-1.53Q257.76-3.06 256.35-5.67L256.35-5.67L256.35-5.67Q254.94-8.28 254.94-11.58L254.94-11.58L254.94-27.60L251.04-27.60L251.04-27.60Q250.08-27.60 249.51-28.17L249.51-28.17L249.51-28.17Q248.94-28.74 248.94-29.58L248.94-29.58L248.94-29.58Q248.94-30.48 249.51-31.05L249.51-31.05L249.51-31.05Q250.08-31.62 251.04-31.62L251.04-31.62L254.94-31.62L254.94-40.92L254.94-40.92Q254.94-41.94 255.57-42.60L255.57-42.60L255.57-42.60Q256.20-43.26 257.22-43.26L257.22-43.26L257.22-43.26Q258.24-43.26 258.90-42.60L258.90-42.60L258.90-42.60Q259.56-41.94 259.56-40.92L259.56-40.92L259.56-31.62L266.34-31.62L266.34-31.62Q267.30-31.62 267.87-31.05L267.87-31.05L267.87-31.05Q268.44-30.48 268.44-29.58L268.44-29.58L268.44-29.58Q268.44-28.74 267.87-28.17L267.87-28.17L267.87-28.17Q267.30-27.60 266.34-27.60L266.34-27.60L259.56-27.60L259.56-11.58L259.56-11.58Q259.56-8.52 261.36-6.57L261.36-6.57L261.36-6.57Q263.16-4.62 265.98-4.62L265.98-4.62L267.60-4.62Z" fill="url(#editing-shiny-gradient)"></path></g></g><g filter="url(#editing-shiny2)"><g transform="translate(112.1199951171875, 98.57999992370605)"><path d="M6-44.52L6-44.52Q6-45.54 6.69-46.20L6.69-46.20L6.69-46.20Q7.38-46.86 8.34-46.86L8.34-46.86L8.34-46.86Q9.36-46.86 10.02-46.20L10.02-46.20L10.02-46.20Q10.68-45.54 10.68-44.52L10.68-44.52L10.68-2.34L10.68-2.34Q10.68-1.38 10.02-0.69L10.02-0.69L10.02-0.69Q9.36 0 8.34 0L8.34 0L8.34 0Q7.38 0 6.69-0.69L6.69-0.69L6.69-0.69Q6-1.38 6-2.34L6-2.34L6-44.52ZM37.62-33.18L37.62-33.18Q41.88-33.18 45.27-31.38L45.27-31.38L45.27-31.38Q48.66-29.58 50.58-26.13L50.58-26.13L50.58-26.13Q52.50-22.68 52.50-17.88L52.50-17.88L52.50-2.28L52.50-2.28Q52.50-1.32 51.84-0.66L51.84-0.66L51.84-0.66Q51.18 0 50.22 0L50.22 0L50.22 0Q49.20 0 48.54-0.66L48.54-0.66L48.54-0.66Q47.88-1.32 47.88-2.28L47.88-2.28L47.88-17.88L47.88-17.88Q47.88-23.22 44.91-26.01L44.91-26.01L44.91-26.01Q41.94-28.80 37.14-28.80L37.14-28.80L37.14-28.80Q34.20-28.80 31.83-27.66L31.83-27.66L31.83-27.66Q29.46-26.52 28.08-24.51L28.08-24.51L28.08-24.51Q26.70-22.50 26.70-20.04L26.70-20.04L26.70-2.28L26.70-2.28Q26.70-1.26 26.07-0.63L26.07-0.63L26.07-0.63Q25.44 0 24.42 0L24.42 0L24.42 0Q23.40 0 22.74-0.63L22.74-0.63L22.74-0.63Q22.08-1.26 22.08-2.28L22.08-2.28L22.08-30.48L22.08-30.48Q22.08-31.50 22.74-32.16L22.74-32.16L22.74-32.16Q23.40-32.82 24.42-32.82L24.42-32.82L24.42-32.82Q25.44-32.82 26.07-32.16L26.07-32.16L26.07-32.16Q26.70-31.50 26.70-30.48L26.70-30.48L26.70-28.44L26.70-28.44Q28.68-30.66 31.50-31.92L31.50-31.92L31.50-31.92Q34.32-33.18 37.62-33.18L37.62-33.18ZM94.26-31.08L94.26-31.08Q94.32-30.90 94.32-30.54L94.32-30.54L94.32-16.44L94.32-16.44Q94.32-11.76 92.13-7.92L92.13-7.92L92.13-7.92Q89.94-4.08 86.13-1.89L86.13-1.89L86.13-1.89Q82.32 0.30 77.64 0.30L77.64 0.30L77.64 0.30Q72.96 0.30 69.15-1.89L69.15-1.89L69.15-1.89Q65.34-4.08 63.15-7.92L63.15-7.92L63.15-7.92Q60.96-11.76 60.96-16.44L60.96-16.44L60.96-16.44Q60.96-21.12 63.09-24.93L63.09-24.93L63.09-24.93Q65.22-28.74 68.91-30.93L68.91-30.93L68.91-30.93Q72.60-33.12 77.16-33.12L77.16-33.12L77.16-33.12Q81.06-33.12 84.30-31.47L84.30-31.47L84.30-31.47Q87.54-29.82 89.64-26.94L89.64-26.94L89.64-44.52L89.64-44.52Q89.64-45.54 90.30-46.20L90.30-46.20L90.30-46.20Q90.96-46.86 91.98-46.86L91.98-46.86L91.98-46.86Q93-46.86 93.63-46.20L93.63-46.20L93.63-46.20Q94.26-45.54 94.26-44.52L94.26-44.52L94.26-31.08ZM77.64-3.90L77.64-3.90Q81.06-3.90 83.82-5.55L83.82-5.55L83.82-5.55Q86.58-7.20 88.17-10.05L88.17-10.05L88.17-10.05Q89.76-12.90 89.76-16.44L89.76-16.44L89.76-16.44Q89.76-17.46 89.70-17.94L89.70-17.94L89.70-17.94Q89.64-18.06 89.64-18.24L89.64-18.24L89.64-18.24Q89.04-22.92 85.71-25.92L85.71-25.92L85.71-25.92Q82.38-28.92 77.64-28.92L77.64-28.92L77.64-28.92Q74.22-28.92 71.43-27.30L71.43-27.30L71.43-27.30Q68.64-25.68 67.05-22.83L67.05-22.83L67.05-22.83Q65.46-19.98 65.46-16.44L65.46-16.44L65.46-16.44Q65.46-12.90 67.05-10.05L67.05-10.05L67.05-10.05Q68.64-7.20 71.43-5.55L71.43-5.55L71.43-5.55Q74.22-3.90 77.64-3.90L77.64-3.90ZM120.06-33.12L120.06-33.12Q124.80-33.12 128.58-30.96L128.58-30.96L128.58-30.96Q132.36-28.80 134.55-24.96L134.55-24.96L134.55-24.96Q136.74-21.12 136.74-16.38L136.74-16.38L136.74-16.38Q136.74-11.64 134.58-7.83L134.58-7.83L134.58-7.83Q132.42-4.02 128.61-1.86L128.61-1.86L128.61-1.86Q124.80 0.30 120.06 0.30L120.06 0.30L120.06 0.30Q115.32 0.30 111.51-1.86L111.51-1.86L111.51-1.86Q107.70-4.02 105.54-7.83L105.54-7.83L105.54-7.83Q103.38-11.64 103.38-16.38L103.38-16.38L103.38-16.38Q103.38-21.12 105.54-24.96L105.54-24.96L105.54-24.96Q107.70-28.80 111.51-30.96L111.51-30.96L111.51-30.96Q115.32-33.12 120.06-33.12L120.06-33.12ZM120.06-28.92L120.06-28.92Q116.64-28.92 113.85-27.30L113.85-27.30L113.85-27.30Q111.06-25.68 109.47-22.83L109.47-22.83L109.47-22.83Q107.88-19.98 107.88-16.38L107.88-16.38L107.88-16.38Q107.88-12.84 109.47-9.99L109.47-9.99L109.47-9.99Q111.06-7.14 113.85-5.52L113.85-5.52L113.85-5.52Q116.64-3.90 120.06-3.90L120.06-3.90L120.06-3.90Q123.54-3.90 126.30-5.52L126.30-5.52L126.30-5.52Q129.06-7.14 130.62-9.99L130.62-9.99L130.62-9.99Q132.18-12.84 132.18-16.38L132.18-16.38L132.18-16.38Q132.18-19.98 130.62-22.83L130.62-22.83L130.62-22.83Q129.06-25.68 126.30-27.30L126.30-27.30L126.30-27.30Q123.54-28.92 120.06-28.92L120.06-28.92ZM151.02-2.34L151.02-2.34Q151.02-1.38 150.36-0.69L150.36-0.69L150.36-0.69Q149.70 0 148.68 0L148.68 0L148.68 0Q147.72 0 147.03-0.69L147.03-0.69L147.03-0.69Q146.34-1.38 146.34-2.34L146.34-2.34L146.34-44.52L146.34-44.52Q146.34-45.48 147.03-46.17L147.03-46.17L147.03-46.17Q147.72-46.86 148.68-46.86L148.68-46.86L148.68-46.86Q149.70-46.86 150.36-46.20L150.36-46.20L150.36-46.20Q151.02-45.54 151.02-44.52L151.02-44.52L151.02-24.12L172.92-46.02L172.92-46.02Q173.76-46.86 174.78-46.86L174.78-46.86L174.78-46.86Q175.80-46.86 176.37-46.26L176.37-46.26L176.37-46.26Q176.94-45.66 176.94-44.76L176.94-44.76L176.94-44.76Q176.94-43.68 176.16-42.84L176.16-42.84L159.72-26.40L176.34-3.72L176.34-3.72Q176.82-2.94 176.82-2.28L176.82-2.28L176.82-2.28Q176.82-1.38 176.19-0.69L176.19-0.69L176.19-0.69Q175.56 0 174.66 0L174.66 0L174.66 0Q173.34 0 172.68-1.02L172.68-1.02L156.36-23.10L151.02-17.70L151.02-2.34ZM199.98-33.12L199.98-33.12Q204.66-33.12 208.47-30.93L208.47-30.93L208.47-30.93Q212.28-28.74 214.47-24.90L214.47-24.90L214.47-24.90Q216.66-21.06 216.66-16.38L216.66-16.38L216.66-2.28L216.66-2.28Q216.66-1.32 216-0.66L216-0.66L216-0.66Q215.34 0 214.32 0L214.32 0L214.32 0Q213.30 0 212.64-0.63L212.64-0.63L212.64-0.63Q211.98-1.26 211.98-2.28L211.98-2.28L211.98-5.88L211.98-5.88Q209.88-3 206.64-1.35L206.64-1.35L206.64-1.35Q203.40 0.30 199.50 0.30L199.50 0.30L199.50 0.30Q194.94 0.30 191.25-1.89L191.25-1.89L191.25-1.89Q187.56-4.08 185.43-7.89L185.43-7.89L185.43-7.89Q183.30-11.70 183.30-16.38L183.30-16.38L183.30-16.38Q183.30-21.06 185.49-24.90L185.49-24.90L185.49-24.90Q187.68-28.74 191.49-30.93L191.49-30.93L191.49-30.93Q195.30-33.12 199.98-33.12L199.98-33.12ZM199.98-3.90L199.98-3.90Q203.40-3.90 206.16-5.52L206.16-5.52L206.16-5.52Q208.92-7.14 210.51-9.99L210.51-9.99L210.51-9.99Q212.10-12.84 212.10-16.38L212.10-16.38L212.10-16.38Q212.10-19.92 210.51-22.77L210.51-22.77L210.51-22.77Q208.92-25.62 206.16-27.27L206.16-27.27L206.16-27.27Q203.40-28.92 199.98-28.92L199.98-28.92L199.98-28.92Q196.56-28.92 193.77-27.27L193.77-27.27L193.77-27.27Q190.98-25.62 189.39-22.77L189.39-22.77L189.39-22.77Q187.80-19.92 187.80-16.38L187.80-16.38L187.80-16.38Q187.80-12.84 189.39-9.99L189.39-9.99L189.39-9.99Q190.98-7.14 193.77-5.52L193.77-5.52L193.77-5.52Q196.56-3.90 199.98-3.90L199.98-3.90ZM240.48-33.18L240.48-33.18Q243-33.18 244.47-32.52L244.47-32.52L244.47-32.52Q245.94-31.86 245.94-30.66L245.94-30.66L245.94-30.66Q245.94-30.30 245.88-30.12L245.88-30.12L245.88-30.12Q245.64-29.28 245.13-28.98L245.13-28.98L245.13-28.98Q244.62-28.68 243.72-28.68L243.72-28.68L243.72-28.68Q243.18-28.68 241.86-28.80L241.86-28.80L241.86-28.80Q241.38-28.86 240.42-28.86L240.42-28.86L240.42-28.86Q235.92-28.86 233.07-26.46L233.07-26.46L233.07-26.46Q230.22-24.06 230.22-20.22L230.22-20.22L230.22-2.28L230.22-2.28Q230.22-1.20 229.62-0.60L229.62-0.60L229.62-0.60Q229.02 0 227.94 0L227.94 0L227.94 0Q226.86 0 226.26-0.60L226.26-0.60L226.26-0.60Q225.66-1.20 225.66-2.28L225.66-2.28L225.66-30.54L225.66-30.54Q225.66-31.62 226.26-32.22L226.26-32.22L226.26-32.22Q226.86-32.82 227.94-32.82L227.94-32.82L227.94-32.82Q229.02-32.82 229.62-32.22L229.62-32.22L229.62-32.22Q230.22-31.62 230.22-30.54L230.22-30.54L230.22-27.90L230.22-27.90Q231.96-30.42 234.66-31.80L234.66-31.80L234.66-31.80Q237.36-33.18 240.48-33.18L240.48-33.18ZM267.60-4.62L267.60-4.62Q268.56-4.62 269.16-3.96L269.16-3.96L269.16-3.96Q269.76-3.30 269.76-2.28L269.76-2.28L269.76-2.28Q269.76-1.32 269.04-0.66L269.04-0.66L269.04-0.66Q268.32 0 267.24 0L267.24 0L265.98 0L265.98 0Q262.80 0 260.28-1.53L260.28-1.53L260.28-1.53Q257.76-3.06 256.35-5.67L256.35-5.67L256.35-5.67Q254.94-8.28 254.94-11.58L254.94-11.58L254.94-27.60L251.04-27.60L251.04-27.60Q250.08-27.60 249.51-28.17L249.51-28.17L249.51-28.17Q248.94-28.74 248.94-29.58L248.94-29.58L248.94-29.58Q248.94-30.48 249.51-31.05L249.51-31.05L249.51-31.05Q250.08-31.62 251.04-31.62L251.04-31.62L254.94-31.62L254.94-40.92L254.94-40.92Q254.94-41.94 255.57-42.60L255.57-42.60L255.57-42.60Q256.20-43.26 257.22-43.26L257.22-43.26L257.22-43.26Q258.24-43.26 258.90-42.60L258.90-42.60L258.90-42.60Q259.56-41.94 259.56-40.92L259.56-40.92L259.56-31.62L266.34-31.62L266.34-31.62Q267.30-31.62 267.87-31.05L267.87-31.05L267.87-31.05Q268.44-30.48 268.44-29.58L268.44-29.58L268.44-29.58Q268.44-28.74 267.87-28.17L267.87-28.17L267.87-28.17Q267.30-27.60 266.34-27.60L266.34-27.60L259.56-27.60L259.56-11.58L259.56-11.58Q259.56-8.52 261.36-6.57L261.36-6.57L261.36-6.57Q263.16-4.62 265.98-4.62L265.98-4.62L267.60-4.62Z" fill="url(#editing-shiny-gradient2)"></path></g></g><style>text {
  font-size: 64px;
  font-family: Arial Black;
  dominant-baseline: central;
  text-anchor: middle;
}</style></svg>